/* XPM */
static char * Chopstix_xpm[] = {
"144 63 3 1",
" 	c None",
".	c #000000",
"+	c #4B7279",
"                                     ++                                                                                                         ",
"                                    ++++                                                                                                        ",
"                                   +++++++                                                                                                      ",
"                                  ++++++++                                                                                                      ",
"                                  +++++  +                                                                                                      ",
"                                 +++++                                                                                                          ",
"                                 ++++                                                                                            +              ",
"              +++               ++++                                                                                           ++++          +  ",
"            ++++++              ++++                                                                                          +++++         +++ ",
"           +++++++++++         ++++                                                                  ++++                     +++++        +++++",
"          +++++++++++++        ++++                                                                 ++++++                  ++++++         +++++",
"         ++++++   +++++       ++++                                                                 +++++                  ++++++++        ++++++",
"         +++++    +++++       ++++                                                                 ++++       ++        ++++++++++      +++++++ ",
"        +++++     +++++       +++                                                                  ++++      ++++     +++++++ ++++      +++++++ ",
"       +++++      ++++       ++++                                                                 ++++       +++++  ++++++++  ++++        ++++  ",
"      +++++       ++++       ++++                                   +++                           ++++     ++++++  +++++++    ++++       ++++   ",
"      ++++       +++++       +++                                   ++++++                         +++      +++++   +++++      ++++      ++++    ",
"     +++++       +++++      ++++                                   +++++++                       ++++       ++     ++++        +++    +++++     ",
"     ++++        ++++       ++++                                  ++++++++                       ++++              ++++        ++++  ++++       ",
"    +++++       +++++       +++                                   ++++                           +++               ++++        ++++ ++++        ",
"    ++++        ++++       ++++      +           ++              +++++   +               ++     ++++                +++        ++++++++         ",
"   +++++         ++        ++++    +++++        ++++ ++++        ++++   ++++         ++++++  +++++++++++  +++        ++        +++++++          ",
"   ++++                    +++     ++++++      +++++++++++      +++++  ++++++      ++++ +++  +++++++++++++++++       ++        ++++++           ",
"  +++++                    +++    +++ +++      +++++++++++      ++++  ++++++++    ++++  +++  +++++++++  ++++++                 ++++             ",
"  ++++                    ++++   +++  +++     +++++++  ++++     ++++ ++++  +++    +++   +++    ++++    ++ ++++                ++++++            ",
"  ++++                    +++   +++  ++++     ++++     ++++    ++++ ++++   +++   ++++  ++++    +++     +  ++++              ++++++++            ",
" +++++                    +++  +++   ++++    ++++      ++++    ++++ +++   ++++    ++++ +++     +++        ++++             ++++ ++++            ",
" ++++                     +++  +++   ++++    ++++      ++++    +++ +++    ++++    ++++        ++++        +++             ++++  ++++            ",
" ++++                    ++++ +++    +++     +++       +++    +++++++     ++++    ++++        ++++        +++            ++++   +++++           ",
" ++++              +     ++++ ++     +++    ++++       +++    +++++++     ++++    ++++        +++        ++++           ++++     ++++           ",
"+++++             +++    +++ +++    ++++    ++++      ++++    ++++++      ++++     ++++       +++        +++           ++++      ++++           ",
"++++              +++    +++ ++     ++++ +  +++       ++++   ++++++       +++      ++++      ++++        +++          ++++       ++++           ",
"++++             ++++   ++++++      +++ ++ ++++       +++    +++++       ++++      ++++      ++++       +++++       +++++        +++++          ",
"++++            +++++   ++++++     ++++++  ++++      ++++    +++++       ++++       ++++     +++        +++++      +++++          ++++          ",
"++++           ++++++   +++++      ++++++  ++++      ++++   +++++       ++++        ++++     +++        +++++      ++++           +++++         ",
"++++         +++++++    +++++      +++++   ++++     ++++    +++++       ++++        ++++     +++   ++   ++++      ++++            +++++         ",
"++++        ++++++      ++++      +++++    ++++     ++++    ++++       +++++        ++++    ++++  +++  +++++     +++++             +++++        ",
" ++++     +++++++       ++++      +++++    ++++    ++++     ++++       ++++        ++++     ++++ +++   ++++     +++++              ++++++ +++   ",
"  ++++++++++++++       ++++       ++++     ++++   ++++     +++++  +++++++++     ++++++      +++++++   +++++     ++++               +++++++++    ",
"   +++++++++++          +++      +++++      ++++++++++     ++++    +++++++  +++++++++       ++++++    ++++      ++++                +++++++     ",
"     +++++++             ++      ++++        ++++++++      ++++     +++++   ++++++++        +++++     ++++      ++++                ++++++      ",
"      ++++                        +++          +++++       ++++      +++       ++++           ++       ++        ++                  +++        ",
"                                                          ++++                                                    ++                            ",
"                                                          ++++                                                                                  ",
"                                                          ++++                                                                                  ",
"                                                          +++                                                                                   ",
"                                                         ++++                                                                                   ",
"                                                         ++++                                                                                   ",
"                                                         ++++                                                                                   ",
"                                                         ++++                                                                                   ",
"                                                         +++                                                                                    ",
"                                                         +++                                                                                    ",
"                                                        ++++                                                                                    ",
"                                                        ++++                                                                                    ",
"                                                        ++++                                                                                    ",
"                                                        ++++                                                                                    ",
"                                                        ++++                                                                                    ",
"                                                        ++++                                                                                    ",
"                                                        ++++                                                                                    ",
"                                                        ++++                                                                                    ",
"                                                        +++                                                                                     ",
"                                                        +++                                                                                     ",
"                                                         ++                                                                                     "};
